# xmcd
#
# Track frame offsets:
#	150
#	18055
#	32905
#	49016
#	65893
#	80691
#	93259
#	107179
#	125042
#	136669
#
# Disc length: 1974 seconds
# Revision: 0
# Processed by: cddbd v1.5.2PL0 Copyright (c) Steve Scherf et al.
# Submitted via: dBpowerAMP V12.0
#
DISCID=8407b40a
DTITLE=Dicky Overbey and Bobby Flores - Christmas in Ol' San Antone
DYEAR=2004
DGENRE=Country
TTITLE0=Away In A Manger
TTITLE1=O Come, All Ye Faithful
TTITLE2=O Holy Night
TTITLE3=Silent Night
TTITLE4=Joy To The World
TTITLE5=Silver Bells
TTITLE6=O Little Town Of Bethlehem
TTITLE7=What Child Is This
TTITLE8=In Excelsis Deo
TTITLE9=The First Noel
EXTD=
EXTT0=
EXTT1=
EXTT2=
EXTT3=
EXTT4=
EXTT5=
EXTT6=
EXTT7=
EXTT8=
EXTT9=
PLAYORDER=
